<svg width="157" height="123" viewBox="0 0 157 123" fill="none" xmlns="http://www.w3.org/2000/svg">
<path d="M0.25525 107.8H9.47125V109.08H5.53525V119H4.19125V109.08H0.25525V107.8ZM12.6348 117.544L15.2268 111.32H16.5868L12.8108 120.152C12.0748 121.859 11.1094 122.712 9.91475 122.712C9.62675 122.712 9.34942 122.675 9.08275 122.6V121.496C9.30675 121.56 9.53075 121.592 9.75475 121.592C10.5761 121.592 11.2374 120.968 11.7388 119.72L12.0268 119.016L8.37875 111.32H9.73875L12.6348 117.544ZM21.2121 119H19.9321V112.504H17.1001V111.32H24.0281V112.504H21.2121V119ZM36.9693 115.384C36.9693 116.568 36.6066 117.501 35.8813 118.184C35.1666 118.856 34.2226 119.192 33.0493 119.192C31.8546 119.192 30.8893 118.797 30.1533 118.008C29.4279 117.219 29.0653 116.115 29.0653 114.696C29.0653 113.459 29.2786 112.392 29.7053 111.496C30.1319 110.6 30.7079 109.928 31.4333 109.48C31.9239 109.181 32.4306 108.947 32.9533 108.776C33.4866 108.595 33.9239 108.483 34.2653 108.44C34.6173 108.397 34.9799 108.312 35.3533 108.184C35.7266 108.045 36.0359 107.853 36.2812 107.608V108.952C35.9826 109.165 35.6146 109.325 35.1773 109.432C34.7399 109.528 34.2546 109.645 33.7213 109.784C33.1879 109.923 32.6759 110.136 32.1853 110.424C31.7053 110.712 31.3319 111.075 31.0653 111.512C30.7986 111.949 30.5639 112.472 30.3613 113.08C30.6386 112.653 31.0333 112.307 31.5453 112.04C32.0573 111.773 32.6066 111.64 33.1933 111.64C34.2279 111.64 35.1133 111.987 35.8493 112.68C36.5959 113.373 36.9693 114.275 36.9693 115.384ZM30.3453 115.416C30.3453 116.152 30.5906 116.765 31.0813 117.256C31.5719 117.736 32.2173 117.976 33.0173 117.976C33.8386 117.976 34.4893 117.736 34.9693 117.256C35.4493 116.776 35.6893 116.163 35.6893 115.416C35.6893 114.669 35.4493 114.056 34.9693 113.576C34.4893 113.096 33.8386 112.856 33.0173 112.856C32.2493 112.856 31.6093 113.117 31.0973 113.64C30.5959 114.152 30.3453 114.744 30.3453 115.416ZM41.6973 117.544L44.2893 111.32H45.6493L41.8733 120.152C41.1373 121.859 40.1719 122.712 38.9773 122.712C38.6893 122.712 38.4119 122.675 38.1453 122.6V121.496C38.3693 121.56 38.5933 121.592 38.8173 121.592C39.6386 121.592 40.2999 120.968 40.8013 119.72L41.0893 119.016L37.4413 111.32H38.8013L41.6973 117.544ZM46.8984 121.08H45.6504V117.848H46.6744C47.581 116.248 48.0184 114.072 47.9864 111.32H53.7144V117.848H54.8344V121.08H53.5864V119H46.8984V121.08ZM49.2184 112.472C49.165 114.573 48.781 116.365 48.0664 117.848H52.4344V112.472H49.2184ZM55.8591 115.16C55.8591 113.901 56.2431 112.915 57.0111 112.2C57.7898 111.485 58.6805 111.128 59.6831 111.128C60.6218 111.128 61.3951 111.363 62.0031 111.832C62.6218 112.301 63.0271 112.883 63.2191 113.576C63.4111 114.259 63.4218 114.973 63.2511 115.72H57.1391C57.2138 116.477 57.5498 117.048 58.1471 117.432C58.7445 117.816 59.4645 118.008 60.3071 118.008C61.2458 118.008 62.0885 117.8 62.8351 117.384V118.632C62.1205 119.005 61.2138 119.192 60.1151 119.192C58.8991 119.192 57.8858 118.845 57.0751 118.152C56.2645 117.459 55.8591 116.461 55.8591 115.16ZM62.1151 114.6C62.1471 114.376 62.1311 114.141 62.0671 113.896C62.0031 113.651 61.8858 113.405 61.7151 113.16C61.5551 112.915 61.3045 112.712 60.9631 112.552C60.6218 112.392 60.2218 112.312 59.7631 112.312C59.0698 112.312 58.4671 112.515 57.9551 112.92C57.4538 113.325 57.1818 113.885 57.1391 114.6H62.1151ZM68.1653 119H66.8853V112.504H64.0533V111.32H70.9813V112.504H68.1653V119ZM81.6504 122.52H80.3704V119.192C79.069 119.16 77.9917 118.781 77.1384 118.056C76.2957 117.32 75.8744 116.355 75.8744 115.16C75.8744 113.965 76.2957 113.005 77.1384 112.28C77.9917 111.544 79.069 111.16 80.3704 111.128V107.8H81.6504V111.128C82.9517 111.16 84.0237 111.544 84.8664 112.28C85.7197 113.005 86.1464 113.965 86.1464 115.16C86.1464 116.355 85.7197 117.32 84.8664 118.056C84.0237 118.781 82.9517 119.16 81.6504 119.192V122.52ZM78.0184 113.08C77.4424 113.592 77.1544 114.285 77.1544 115.16C77.1544 116.035 77.4424 116.733 78.0184 117.256C78.605 117.768 79.389 118.04 80.3704 118.072V112.248C79.389 112.28 78.605 112.557 78.0184 113.08ZM81.6504 112.248V118.072C82.6317 118.04 83.4104 117.768 83.9864 117.256C84.573 116.733 84.8664 116.035 84.8664 115.16C84.8664 114.285 84.573 113.592 83.9864 113.08C83.4104 112.557 82.6317 112.28 81.6504 112.248ZM88.6533 118.12C87.8426 117.395 87.4373 116.408 87.4373 115.16C87.4373 113.912 87.8426 112.931 88.6533 112.216C89.4639 111.491 90.4239 111.128 91.5333 111.128C92.6533 111.128 93.6133 111.491 94.4133 112.216C95.2239 112.931 95.6293 113.912 95.6293 115.16C95.6293 116.408 95.2239 117.395 94.4133 118.12C93.6133 118.835 92.6533 119.192 91.5333 119.192C90.4239 119.192 89.4639 118.835 88.6533 118.12ZM93.5493 117.224C94.0826 116.712 94.3493 116.024 94.3493 115.16C94.3493 114.296 94.0826 113.613 93.5493 113.112C93.0159 112.6 92.3439 112.344 91.5333 112.344C90.7226 112.344 90.0506 112.6 89.5173 113.112C88.9839 113.613 88.7173 114.296 88.7173 115.16C88.7173 116.024 88.9839 116.712 89.5173 117.224C90.0506 117.725 90.7226 117.976 91.5333 117.976C92.3439 117.976 93.0159 117.725 93.5493 117.224ZM100.415 119H99.1353V112.504H96.3033V111.32H103.231V112.504H100.415V119ZM105.122 118.12C104.311 117.395 103.906 116.408 103.906 115.16C103.906 113.912 104.311 112.931 105.122 112.216C105.933 111.491 106.893 111.128 108.002 111.128C109.122 111.128 110.082 111.491 110.882 112.216C111.693 112.931 112.098 113.912 112.098 115.16C112.098 116.408 111.693 117.395 110.882 118.12C110.082 118.835 109.122 119.192 108.002 119.192C106.893 119.192 105.933 118.835 105.122 118.12ZM110.018 117.224C110.551 116.712 110.818 116.024 110.818 115.16C110.818 114.296 110.551 113.613 110.018 113.112C109.485 112.6 108.813 112.344 108.002 112.344C107.191 112.344 106.519 112.6 105.986 113.112C105.453 113.613 105.186 114.296 105.186 115.16C105.186 116.024 105.453 116.712 105.986 117.224C106.519 117.725 107.191 117.976 108.002 117.976C108.813 117.976 109.485 117.725 110.018 117.224ZM119.198 119H117.918V111.32H123.534V112.504H119.198V119ZM125.403 118.12C124.593 117.395 124.187 116.408 124.187 115.16C124.187 113.912 124.593 112.931 125.403 112.216C126.214 111.491 127.174 111.128 128.283 111.128C129.403 111.128 130.363 111.491 131.163 112.216C131.974 112.931 132.379 113.912 132.379 115.16C132.379 116.408 131.974 117.395 131.163 118.12C130.363 118.835 129.403 119.192 128.283 119.192C127.174 119.192 126.214 118.835 125.403 118.12ZM130.299 117.224C130.833 116.712 131.099 116.024 131.099 115.16C131.099 114.296 130.833 113.613 130.299 113.112C129.766 112.6 129.094 112.344 128.283 112.344C127.473 112.344 126.801 112.6 126.267 113.112C125.734 113.613 125.467 114.296 125.467 115.16C125.467 116.024 125.734 116.712 126.267 117.224C126.801 117.725 127.473 117.976 128.283 117.976C129.094 117.976 129.766 117.725 130.299 117.224ZM133.687 115.192C133.687 114.52 133.81 113.917 134.055 113.384C134.301 112.851 134.621 112.424 135.015 112.104C135.421 111.784 135.863 111.544 136.343 111.384C136.834 111.213 137.335 111.128 137.847 111.128C138.797 111.128 139.586 111.336 140.215 111.752V113C139.629 112.541 138.893 112.312 138.007 112.312C137.175 112.312 136.461 112.552 135.863 113.032C135.266 113.512 134.967 114.221 134.967 115.16C134.967 116.088 135.261 116.797 135.847 117.288C136.445 117.768 137.154 118.008 137.975 118.008C138.829 118.008 139.602 117.8 140.295 117.384V118.664C139.57 119.016 138.738 119.192 137.799 119.192C136.69 119.192 135.725 118.845 134.903 118.152C134.093 117.459 133.687 116.472 133.687 115.192ZM145.368 119H144.088V112.504H141.256V111.32H148.184V112.504H145.368V119ZM150.249 119H148.745L150.969 116.184C150.382 116.013 149.929 115.715 149.609 115.288C149.289 114.861 149.129 114.371 149.129 113.816C149.129 113.112 149.385 112.52 149.897 112.04C150.409 111.56 151.113 111.32 152.009 111.32H155.785V119H154.505V116.312H152.345L150.249 119ZM150.857 112.824C150.558 113.059 150.409 113.389 150.409 113.816C150.409 114.243 150.558 114.573 150.857 114.808C151.166 115.043 151.588 115.16 152.121 115.16H154.505V112.472H152.121C151.588 112.472 151.166 112.589 150.857 112.824Z" fill="#A1A6B4"/>
<path d="M110.833 84.875V76.7917C110.833 72.504 109.13 68.3919 106.098 65.3601C103.066 62.3283 98.9542 60.625 94.6665 60.625H62.3332C58.0455 60.625 53.9334 62.3283 50.9016 65.3601C47.8698 68.3919 46.1665 72.504 46.1665 76.7917V84.875" stroke="#A1A6B4" stroke-width="2" stroke-linecap="round" stroke-linejoin="round"/>
<path d="M78.5002 44.4583C87.4288 44.4583 94.6668 37.2203 94.6668 28.2917C94.6668 19.3631 87.4288 12.125 78.5002 12.125C69.5716 12.125 62.3335 19.3631 62.3335 28.2917C62.3335 37.2203 69.5716 44.4583 78.5002 44.4583Z" stroke="#A1A6B4" stroke-width="2" stroke-linecap="round" stroke-linejoin="round"/>
</svg>
